<?xml version="1.0"?>
<svg xmlns="http://www.w3.org/2000/svg" viewBox="0 0 50 50">
    <path d="M 40 6 C 38.706841 6 37.604859 6.84267 37.1875 8 L 36.414062 8 L 35.207031 6.7929688 A 1.0001 1.0001 0 0 0 34.490234 6.4902344 A 1.0001 1.0001 0 0 0 33.792969 8.2070312 L 36.585938 11 L 35.480469 12.105469 L 35.289062 11.912109 C 34.661062 11.289109 33.592516 11.384047 32.853516 12.123047 L 27.123047 17.851562 C 26.383047 18.592563 26.290063 19.662063 26.914062 20.289062 L 27.105469 20.480469 L 26 21.585938 L 25.414062 21 L 26.207031 20.207031 L 24.792969 18.792969 L 24.292969 19.292969 L 21.707031 16.707031 L 22.707031 15.707031 L 21.292969 14.292969 L 20 15.585938 L 19.207031 14.792969 A 1.0001 1.0001 0 1 0 17.792969 16.207031 L 18.585938 17 L 17.292969 18.292969 L 18.707031 19.707031 L 19.707031 18.707031 L 22.292969 21.292969 L 22 21.585938 L 21.414062 21 C 20.635063 20.221 19.364937 20.221 18.585938 21 L 10 29.585938 C 9.22 30.364937 9.22 31.635063 10 32.414062 L 12.585938 35 C 12.975938 35.39 13.488 35.585938 14 35.585938 C 14.512 35.585938 15.024062 35.39 15.414062 35 L 24 26.414062 C 24.78 25.635063 24.78 24.364937 24 23.585938 L 23.414062 23 L 24 22.414062 L 35.292969 33.707031 L 35.707031 34.121094 L 37.121094 32.707031 C 36.722167 32.308104 36.722167 31.691896 37.121094 31.292969 L 46.292969 22.121094 C 46.691896 21.722167 47.308104 21.722167 47.707031 22.121094 L 49.121094 20.707031 L 48.363281 19.949219 A 1.0001 1.0001 0 0 0 48.707031 18.292969 L 47.707031 17.292969 A 1.0001 1.0001 0 0 0 46.990234 16.990234 A 1.0001 1.0001 0 0 0 46.054688 17.640625 L 40.376953 11.962891 C 41.504517 11.817304 42.436718 11.042039 42.8125 10 L 45 10 L 45 8 L 42.8125 8 C 42.395141 6.84267 41.293159 6 40 6 z M 40 8 C 40.564129 8 41 8.4358706 41 9 C 41 9.5641294 40.564129 10 40 10 C 39.435871 10 39 9.5641294 39 9 C 39 8.4358706 39.435871 8 40 8 z M 38 12.414062 L 41.585938 16 L 40.480469 17.105469 L 40.289062 16.912109 C 39.662063 16.289109 38.592516 16.384047 37.853516 17.123047 L 32.123047 22.851562 C 31.383047 23.592562 31.290063 24.662063 31.914062 25.289062 L 32.105469 25.480469 L 31 26.585938 L 27.414062 23 L 28.519531 21.894531 L 28.712891 22.087891 C 28.990891 22.363891 29.355234 22.498047 29.740234 22.498047 C 30.223234 22.498047 30.736437 22.287953 31.148438 21.876953 L 36.876953 16.146484 C 37.616953 15.405484 37.709891 14.336937 37.087891 13.710938 L 36.894531 13.519531 L 38 12.414062 z M 43 17.414062 L 45.085938 19.5 L 34.5 30.085938 L 32.414062 28 L 33.519531 26.894531 L 33.712891 27.087891 C 33.990891 27.363891 34.355234 27.498047 34.740234 27.498047 C 35.223234 27.498047 35.736437 27.287953 36.148438 26.876953 L 41.876953 21.146484 C 42.616953 20.405484 42.709891 19.336938 42.087891 18.710938 L 41.894531 18.519531 L 43 17.414062 z M 9.5859375 33.414062 L 5 38 L 7 40 L 11.585938 35.414062 L 9.5859375 33.414062 z M 4.7929688 39.207031 L 3 41 L 1 44 L 4 42 L 5.7929688 40.207031 L 4.7929688 39.207031 z"/>
</svg>
